<?xml version="1.0" encoding="utf-8"?>
<!-- Generator: Adobe Illustrator 22.1.0, SVG Export Plug-In . SVG Version: 6.00 Build 0)  -->
<svg version="1.1"
	 id="svg1901" inkscape:version="0.47 " sodipodi:docname="Computer_keyboard_German.svg" xmlns:cc="http://creativecommons.org/ns#" xmlns:dc="http://purl.org/dc/elements/1.1/" xmlns:inkscape="http://www.inkscape.org/namespaces/inkscape" xmlns:rdf="http://www.w3.org/1999/02/22-rdf-syntax-ns#" xmlns:sodipodi="http://sodipodi.sourceforge.net/DTD/sodipodi-0.dtd" xmlns:svg="http://www.w3.org/2000/svg"
	 xmlns="http://www.w3.org/2000/svg" xmlns:xlink="http://www.w3.org/1999/xlink" x="0px" y="0px" viewBox="0 0 53.4 54"
	 style="enable-background:new 0 0 53.4 54;" xml:space="preserve">
<style type="text/css">
	.st0{fill:#656565;}
	.st1{fill:#D6D6D6;}
	.st2{fill:url(#path4899_1_);}
	.st3{fill:#929292;}
	.st4{fill:url(#path4903_1_);}
	.st5{fill:url(#path4905_1_);}
	.st6{fill:#F1F1F1;}
	.st7{fill:url(#rect4909_1_);}
	.st8{font-family:'Arial-BoldMT';}
	.st9{font-size:26px;}
	.st10{fill:none;stroke:#646464;stroke-width:0.25;}
</style>
<sodipodi:namedview  bordercolor="#666666" borderopacity="1" gridtolerance="10" guidetolerance="10" id="namedview1769" inkscape:current-layer="layer2" inkscape:cx="750" inkscape:cy="346.89278" inkscape:pageopacity="0" inkscape:pageshadow="2" inkscape:snap-grids="true" inkscape:window-height="964" inkscape:window-maximized="1" inkscape:window-width="1680" inkscape:window-x="-4" inkscape:window-y="-4" inkscape:zoom="1.2586667" objecttolerance="10" pagecolor="#ffffff" showgrid="false">
	<inkscape:grid  id="grid4583" type="xygrid"></inkscape:grid>
</sodipodi:namedview>
<defs>
	
	
		<inkscape:perspective  id="perspective1773" inkscape:persp3d-origin="750 : 250 : 1" inkscape:vp_x="0 : 375 : 1" inkscape:vp_y="0 : 1000 : 0" inkscape:vp_z="1500 : 375 : 1" sodipodi:type="inkscape:persp3d">
		</inkscape:perspective>
</defs>
<g id="layer2" transform="translate(115.62417,74.248815)">
	<path id="rect4895" class="st0" d="M-109.8-73.3h42c2.6,0,4.8,1.8,4.8,4v44c0,2.2-2.1,4-4.8,4h-42c-2.6,0-4.8-1.8-4.8-4v-44
		C-114.6-71.5-112.5-73.3-109.8-73.3z"/>
	<rect id="rect4897" x="-74.4" y="-69.4" class="st1" width="11.3" height="34.6"/>
	
		<linearGradient id="path4899_1_" gradientUnits="userSpaceOnUse" x1="-714.4611" y1="302.7256" x2="-717.4916" y2="315.3526" gradientTransform="matrix(0.2087 0 0 -0.208 79.1336 -6.4521)">
		<stop  offset="0" style="stop-color:#D6D6D6"/>
		<stop  offset="1" style="stop-color:#656565"/>
	</linearGradient>
	<path id="path4899" class="st2" d="M-72.3-66.4l9.1-3c-0.4-2.9-2.3-3.8-5.1-3.9c-3.6,0.1-7.2,0.3-9.1,1.3L-72.3-66.4z"/>
	<rect id="rect4901" x="-105.5" y="-34.2" class="st3" width="33.5" height="13"/>
	
		<linearGradient id="path4903_1_" gradientUnits="userSpaceOnUse" x1="509.1215" y1="117.5386" x2="529.1676" y2="101.8809" gradientTransform="matrix(-0.2087 0 0 -0.208 38.438 -6.4521)">
		<stop  offset="0" style="stop-color:#D6D6D6"/>
		<stop  offset="1" style="stop-color:#939393"/>
	</linearGradient>
	<path id="path4903" class="st4" d="M-74-37.2l10.8,1.2v10.5c0,2.7-2.2,4.3-4.4,4.4l-4.8-0.1l-5.3-12.3L-74-37.2z"/>
	
		<linearGradient id="path4905_1_" gradientUnits="userSpaceOnUse" x1="-913.9498" y1="116.9178" x2="-891.0464" y2="101.26" gradientTransform="matrix(0.2087 0 0 -0.208 79.1336 -6.4521)">
		<stop  offset="0" style="stop-color:#656565"/>
		<stop  offset="1" style="stop-color:#939393"/>
	</linearGradient>
	<path id="path4905" class="st5" d="M-107.1-37.3l-7.5,1.3v10.5c0,2.7,2.2,4.3,4.4,4.4l4.8-0.1l1.7-12.3L-107.1-37.3z"/>
	<path id="rect4907" class="st6" d="M-103.1-72.6h27c2.6,0,4.8,2.1,4.8,4.8v30.7c0,2.6-2.1,4.8-4.8,4.8h-27c-2.6,0-4.8-2.1-4.8-4.8
		v-30.7C-107.8-70.5-105.7-72.6-103.1-72.6z"/>
	
		<linearGradient id="rect4909_1_" gradientUnits="userSpaceOnUse" x1="-972.2251" y1="63.6406" x2="-895.6752" y2="63.6406" gradientTransform="matrix(0.2087 0 0 -0.208 105.8636 -39.2127)">
		<stop  offset="0" style="stop-color:#D8D8D8"/>
		<stop  offset="1" style="stop-color:#B1B1B1"/>
	</linearGradient>
	<path id="rect4909" class="st7" d="M-103.1-72.6h25.9c2.6,0,4.8,2.1,4.8,4.8v30.7c0,2.6-2.1,4.8-4.8,4.8h-25.9
		c-2.6,0-4.8-2.1-4.8-4.8v-30.7C-107.8-70.5-105.7-72.6-103.1-72.6z"/>
	<text transform="matrix(1.0034 0 0 1 -104.8073 -49.8831)" class="st8 st9">M</text>
	<path id="rect4915" class="st10" d="M-109.8-73.3h42c2.6,0,4.8,1.8,4.8,4v44c0,2.2-2.1,4-4.8,4h-42c-2.6,0-4.8-1.8-4.8-4v-44
		C-114.6-71.5-112.5-73.3-109.8-73.3z"/>
</g>
<head  xmlns=""></head>
</svg>
